<?xml version="1.0" standalone="no"?>
<!DOCTYPE svg PUBLIC "-//W3C//DTD SVG 20010904//EN"
 "http://www.w3.org/TR/2001/REC-SVG-20010904/DTD/svg10.dtd">
<svg version="1.0" xmlns="http://www.w3.org/2000/svg"
 width="512.000000pt" height="512.000000pt" viewBox="0 0 512.000000 512.000000"
 preserveAspectRatio="xMidYMid meet">

<g transform="translate(0.000000,512.000000) scale(0.100000,-0.100000)"
fill="#000000" stroke="none">
<path d="M2172 4870 c-196 -52 -340 -192 -408 -400 -16 -50 -18 -109 -22 -612
l-3 -558 -518 0 c-569 0 -573 0 -701 -63 -125 -61 -242 -205 -287 -352 -17
-56 -18 -111 -18 -785 0 -676 1 -729 18 -785 78 -252 276 -408 538 -422 l97
-6 4 -226 c3 -203 6 -231 24 -271 25 -54 72 -103 128 -133 59 -31 174 -31 234
1 23 12 188 160 366 327 l325 305 453 0 c354 0 468 3 520 15 198 41 363 194
430 395 21 62 22 89 27 521 l6 456 227 -213 c244 -228 269 -244 368 -244 103
0 199 63 243 158 20 43 22 68 25 275 l4 227 76 0 c157 0 300 58 408 165 69 69
112 140 146 240 l23 70 0 730 0 730 -28 78 c-69 195 -211 328 -402 377 -76 19
-110 20 -1154 19 -1027 0 -1079 -1 -1149 -19z m2289 -303 c40 -20 75 -48 96
-75 65 -85 64 -76 61 -833 l-3 -684 -27 -51 c-15 -28 -43 -65 -62 -82 -71 -62
-85 -66 -281 -72 -196 -6 -228 -14 -262 -67 -16 -24 -19 -62 -23 -296 l-5
-268 -315 296 c-173 163 -328 304 -345 313 -27 15 -85 18 -550 22 l-520 5 -46
27 c-56 33 -94 76 -123 138 -21 44 -21 59 -24 714 -2 451 1 687 8 722 21 98
89 175 187 210 31 11 234 13 1105 14 l1066 0 63 -33z m-2704 -1624 c28 -159
145 -320 290 -396 122 -64 148 -67 621 -67 l423 0 -3 -542 c-3 -529 -4 -544
-24 -589 -26 -55 -79 -111 -137 -141 -42 -23 -46 -23 -562 -28 -463 -4 -524
-7 -545 -22 -14 -9 -167 -149 -340 -312 l-315 -296 -5 268 c-7 367 3 354 -275
362 -179 5 -180 5 -235 36 -30 17 -70 50 -87 73 -65 84 -64 75 -61 832 l3 684
27 50 c33 62 80 108 138 134 43 20 64 21 560 21 l516 0 11 -67z"/>
<path d="M2705 4115 c-49 -17 -94 -66 -97 -103 -4 -75 16 -123 65 -152 31 -19
55 -20 650 -20 680 0 653 -2 698 62 16 22 23 46 23 80 0 52 -19 86 -68 122
-27 21 -39 21 -629 23 -502 2 -609 0 -642 -12z"/>
<path d="M2695 3536 c-110 -48 -118 -197 -15 -255 37 -21 47 -21 645 -21 672
0 656 -1 696 64 31 51 34 90 9 140 -16 33 -32 50 -64 65 -41 21 -57 21 -642
21 -475 -1 -605 -4 -629 -14z"/>
<path d="M1211 2232 c-53 -26 -76 -65 -76 -125 0 -131 148 -194 239 -102 116
116 -17 302 -163 227z"/>
<path d="M1794 2236 c-123 -55 -101 -247 31 -272 71 -13 157 46 170 119 9 44
-19 111 -57 138 -37 27 -103 34 -144 15z"/>
<path d="M2365 2232 c-99 -47 -106 -175 -14 -245 87 -64 219 7 219 117 0 107
-108 174 -205 128z"/>
<path d="M924 3966 c-106 -46 -106 -204 0 -255 38 -19 61 -21 207 -21 140 0
170 3 206 19 78 36 106 141 56 210 -40 54 -72 61 -263 61 -124 -1 -184 -5
-206 -14z"/>
<path d="M3795 1360 c-85 -56 -85 -187 0 -240 29 -18 49 -20 219 -20 149 0
193 3 217 15 92 48 92 202 0 250 -24 12 -68 15 -218 15 -170 0 -191 -2 -218
-20z"/>
</g>
</svg>
