<svg version="1.2" baseProfile="tiny-ps" xmlns="http://www.w3.org/2000/svg" viewBox="0 0 23 353" width="23" height="353">
	<title>landing-bg-svg</title>
	<style>
		tspan { white-space:pre }
		.shp0 { fill: #1f2339 } 
	</style>
	<path class="shp0" d="M-6.93 -6.63C-7.95 -6.63 -8.78 -7.46 -8.78 -8.48C-8.78 -9.5 -7.95 -10.33 -6.93 -10.33C-5.91 -10.33 -5.08 -9.5 -5.08 -8.48C-5.08 -7.46 -5.91 -6.63 -6.93 -6.63Z" />
	<path class="shp0" d="M11.54 -6.63C10.52 -6.63 9.7 -7.46 9.7 -8.48C9.7 -9.5 10.52 -10.33 11.54 -10.33C12.56 -10.33 13.39 -9.5 13.39 -8.48C13.39 -7.46 12.56 -6.63 11.54 -6.63Z" />
	<path class="shp0" d="M30.01 -6.63C28.99 -6.63 28.17 -7.46 28.17 -8.48C28.17 -9.5 28.99 -10.33 30.01 -10.33C31.04 -10.33 31.86 -9.5 31.86 -8.48C31.86 -7.46 31.04 -6.63 30.01 -6.63Z" />
	<path class="shp0" d="M-6.93 11.84C-7.95 11.84 -8.78 11.01 -8.78 9.99C-8.78 8.97 -7.95 8.14 -6.93 8.14C-5.91 8.14 -5.08 8.97 -5.08 9.99C-5.08 11.01 -5.91 11.84 -6.93 11.84Z" />
	<path class="shp0" d="M11.54 11.84C10.52 11.84 9.7 11.01 9.7 9.99C9.7 8.97 10.52 8.14 11.54 8.14C12.56 8.14 13.39 8.97 13.39 9.99C13.39 11.01 12.56 11.84 11.54 11.84Z" />
	<path class="shp0" d="M30.02 11.84C28.99 11.84 28.17 11.01 28.17 9.99C28.17 8.97 28.99 8.14 30.02 8.14C31.04 8.14 31.86 8.97 31.86 9.99C31.86 11.01 31.04 11.84 30.02 11.84Z" />
	<path class="shp0" d="M-6.93 30.31C-7.95 30.31 -8.78 29.49 -8.78 28.46C-8.78 27.44 -7.95 26.62 -6.93 26.62C-5.91 26.62 -5.08 27.44 -5.08 28.46C-5.08 29.49 -5.91 30.31 -6.93 30.31Z" />
	<path class="shp0" d="M11.54 30.31C10.52 30.31 9.7 29.49 9.7 28.46C9.7 27.44 10.52 26.62 11.54 26.62C12.56 26.62 13.39 27.44 13.39 28.46C13.39 29.49 12.56 30.31 11.54 30.31Z" />
	<path class="shp0" d="M30.02 30.31C28.99 30.31 28.17 29.49 28.17 28.46C28.17 27.44 28.99 26.62 30.02 26.62C31.04 26.62 31.86 27.44 31.86 28.46C31.86 29.49 31.04 30.31 30.02 30.31Z" />
	<path class="shp0" d="M-6.93 48.78C-7.95 48.78 -8.78 47.96 -8.78 46.94C-8.78 45.91 -7.95 45.09 -6.93 45.09C-5.91 45.09 -5.08 45.91 -5.08 46.94C-5.08 47.96 -5.91 48.78 -6.93 48.78Z" />
	<path class="shp0" d="M11.54 48.78C10.52 48.78 9.7 47.96 9.7 46.94C9.7 45.91 10.52 45.09 11.54 45.09C12.56 45.09 13.39 45.91 13.39 46.94C13.39 47.96 12.56 48.78 11.54 48.78Z" />
	<path class="shp0" d="M30.02 48.78C28.99 48.78 28.17 47.96 28.17 46.94C28.17 45.91 28.99 45.09 30.02 45.09C31.04 45.09 31.86 45.91 31.86 46.94C31.86 47.96 31.04 48.78 30.02 48.78Z" />
	<path class="shp0" d="M-6.93 67.26C-7.95 67.26 -8.78 66.43 -8.78 65.41C-8.78 64.39 -7.95 63.56 -6.93 63.56C-5.91 63.56 -5.08 64.39 -5.08 65.41C-5.08 66.43 -5.91 67.26 -6.93 67.26Z" />
	<path class="shp0" d="M11.54 67.26C10.52 67.26 9.7 66.43 9.7 65.41C9.7 64.39 10.52 63.56 11.54 63.56C12.56 63.56 13.39 64.39 13.39 65.41C13.39 66.43 12.56 67.26 11.54 67.26Z" />
	<path class="shp0" d="M30.02 67.26C28.99 67.26 28.17 66.43 28.17 65.41C28.17 64.39 28.99 63.56 30.02 63.56C31.04 63.56 31.86 64.39 31.86 65.41C31.86 66.43 31.04 67.26 30.02 67.26Z" />
	<path class="shp0" d="M-6.93 85.73C-7.95 85.73 -8.78 84.9 -8.78 83.88C-8.78 82.86 -7.95 82.03 -6.93 82.03C-5.91 82.03 -5.08 82.86 -5.08 83.88C-5.08 84.9 -5.91 85.73 -6.93 85.73Z" />
	<path class="shp0" d="M11.54 85.73C10.52 85.73 9.7 84.9 9.7 83.88C9.7 82.86 10.52 82.03 11.54 82.03C12.56 82.03 13.39 82.86 13.39 83.88C13.39 84.9 12.56 85.73 11.54 85.73Z" />
	<path class="shp0" d="M30.02 85.73C28.99 85.73 28.17 84.9 28.17 83.88C28.17 82.86 28.99 82.03 30.02 82.03C31.04 82.03 31.86 82.86 31.86 83.88C31.86 84.9 31.04 85.73 30.02 85.73Z" />
	<path class="shp0" d="M-6.93 104.2C-7.95 104.2 -8.78 103.37 -8.78 102.35C-8.78 101.33 -7.95 100.5 -6.93 100.5C-5.91 100.5 -5.08 101.33 -5.08 102.35C-5.08 103.37 -5.91 104.2 -6.93 104.2Z" />
	<path class="shp0" d="M11.54 104.2C10.52 104.2 9.7 103.37 9.7 102.35C9.7 101.33 10.52 100.5 11.54 100.5C12.56 100.5 13.39 101.33 13.39 102.35C13.39 103.37 12.56 104.2 11.54 104.2Z" />
	<path class="shp0" d="M30.02 104.2C28.99 104.2 28.17 103.37 28.17 102.35C28.17 101.33 28.99 100.5 30.02 100.5C31.04 100.5 31.86 101.33 31.86 102.35C31.86 103.37 31.04 104.2 30.02 104.2Z" />
	<path class="shp0" d="M-6.93 122.67C-7.95 122.67 -8.78 121.85 -8.78 120.82C-8.78 119.8 -7.95 118.98 -6.93 118.98C-5.91 118.98 -5.08 119.8 -5.08 120.82C-5.08 121.85 -5.91 122.67 -6.93 122.67Z" />
	<path class="shp0" d="M11.54 122.67C10.52 122.67 9.7 121.85 9.7 120.82C9.7 119.8 10.52 118.98 11.54 118.98C12.56 118.98 13.39 119.8 13.39 120.82C13.39 121.85 12.56 122.67 11.54 122.67Z" />
	<path class="shp0" d="M30.02 122.67C28.99 122.67 28.17 121.85 28.17 120.82C28.17 119.8 28.99 118.98 30.02 118.98C31.04 118.98 31.86 119.8 31.86 120.82C31.86 121.85 31.04 122.67 30.02 122.67Z" />
	<path class="shp0" d="M-6.93 141.14C-7.95 141.14 -8.78 140.32 -8.78 139.3C-8.78 138.27 -7.95 137.45 -6.93 137.45C-5.91 137.45 -5.08 138.27 -5.08 139.3C-5.08 140.32 -5.91 141.14 -6.93 141.14Z" />
	<path class="shp0" d="M11.54 141.14C10.52 141.14 9.7 140.32 9.7 139.3C9.7 138.27 10.52 137.45 11.54 137.45C12.56 137.45 13.39 138.27 13.39 139.3C13.39 140.32 12.56 141.14 11.54 141.14Z" />
	<path class="shp0" d="M30.02 141.14C28.99 141.14 28.17 140.32 28.17 139.3C28.17 138.27 28.99 137.45 30.02 137.45C31.04 137.45 31.86 138.27 31.86 139.3C31.86 140.32 31.04 141.14 30.02 141.14Z" />
	<path class="shp0" d="M-6.93 159.62C-7.95 159.62 -8.78 158.79 -8.78 157.77C-8.78 156.75 -7.95 155.92 -6.93 155.92C-5.91 155.92 -5.08 156.75 -5.08 157.77C-5.08 158.79 -5.91 159.62 -6.93 159.62Z" />
	<path class="shp0" d="M11.54 159.62C10.52 159.62 9.7 158.79 9.7 157.77C9.7 156.75 10.52 155.92 11.54 155.92C12.56 155.92 13.39 156.75 13.39 157.77C13.39 158.79 12.56 159.62 11.54 159.62Z" />
	<path class="shp0" d="M30.02 159.62C28.99 159.62 28.17 158.79 28.17 157.77C28.17 156.75 28.99 155.92 30.02 155.92C31.04 155.92 31.86 156.75 31.86 157.77C31.86 158.79 31.04 159.62 30.02 159.62Z" />
	<path class="shp0" d="M-6.93 178.09C-7.95 178.09 -8.78 177.26 -8.78 176.24C-8.78 175.22 -7.95 174.39 -6.93 174.39C-5.91 174.39 -5.08 175.22 -5.08 176.24C-5.08 177.26 -5.91 178.09 -6.93 178.09Z" />
	<path class="shp0" d="M11.54 178.09C10.52 178.09 9.7 177.26 9.7 176.24C9.7 175.22 10.52 174.39 11.54 174.39C12.56 174.39 13.39 175.22 13.39 176.24C13.39 177.26 12.56 178.09 11.54 178.09Z" />
	<path class="shp0" d="M30.02 178.09C28.99 178.09 28.17 177.26 28.17 176.24C28.17 175.22 28.99 174.39 30.02 174.39C31.04 174.39 31.86 175.22 31.86 176.24C31.86 177.26 31.04 178.09 30.02 178.09Z" />
	<path class="shp0" d="M-6.93 196.56C-7.95 196.56 -8.78 195.73 -8.78 194.71C-8.78 193.69 -7.95 192.87 -6.93 192.87C-5.91 192.87 -5.08 193.69 -5.08 194.71C-5.08 195.73 -5.91 196.56 -6.93 196.56Z" />
	<path class="shp0" d="M11.54 196.56C10.52 196.56 9.7 195.73 9.7 194.71C9.7 193.69 10.52 192.87 11.54 192.87C12.56 192.87 13.39 193.69 13.39 194.71C13.39 195.73 12.56 196.56 11.54 196.56Z" />
	<path class="shp0" d="M30.02 196.56C28.99 196.56 28.17 195.73 28.17 194.71C28.17 193.69 28.99 192.87 30.02 192.87C31.04 192.87 31.86 193.69 31.86 194.71C31.86 195.73 31.04 196.56 30.02 196.56Z" />
	<path class="shp0" d="M-6.93 215.03C-7.95 215.03 -8.78 214.21 -8.78 213.19C-8.78 212.16 -7.95 211.34 -6.93 211.34C-5.91 211.34 -5.08 212.16 -5.08 213.19C-5.08 214.21 -5.91 215.03 -6.93 215.03Z" />
	<path class="shp0" d="M11.54 215.03C10.52 215.03 9.7 214.21 9.7 213.19C9.7 212.16 10.52 211.34 11.54 211.34C12.56 211.34 13.39 212.16 13.39 213.19C13.39 214.21 12.56 215.03 11.54 215.03Z" />
	<path class="shp0" d="M30.02 215.03C28.99 215.03 28.17 214.21 28.17 213.19C28.17 212.16 28.99 211.34 30.02 211.34C31.04 211.34 31.86 212.16 31.86 213.19C31.86 214.21 31.04 215.03 30.02 215.03Z" />
	<path class="shp0" d="M-6.93 233.5C-7.95 233.5 -8.78 232.68 -8.78 231.66C-8.78 230.64 -7.95 229.81 -6.93 229.81C-5.91 229.81 -5.08 230.64 -5.08 231.66C-5.08 232.68 -5.91 233.5 -6.93 233.5Z" />
	<path class="shp0" d="M11.54 233.5C10.52 233.5 9.7 232.68 9.7 231.66C9.7 230.64 10.52 229.81 11.54 229.81C12.56 229.81 13.39 230.64 13.39 231.66C13.39 232.68 12.56 233.5 11.54 233.5Z" />
	<path class="shp0" d="M30.02 233.5C28.99 233.5 28.17 232.68 28.17 231.66C28.17 230.64 28.99 229.81 30.02 229.81C31.04 229.81 31.86 230.64 31.86 231.66C31.86 232.68 31.04 233.5 30.02 233.5Z" />
	<path class="shp0" d="M-6.93 251.98C-7.95 251.98 -8.78 251.15 -8.78 250.13C-8.78 249.11 -7.95 248.28 -6.93 248.28C-5.91 248.28 -5.08 249.11 -5.08 250.13C-5.08 251.15 -5.91 251.98 -6.93 251.98Z" />
	<path class="shp0" d="M11.54 251.98C10.52 251.98 9.7 251.15 9.7 250.13C9.7 249.11 10.52 248.28 11.54 248.28C12.56 248.28 13.39 249.11 13.39 250.13C13.39 251.15 12.56 251.98 11.54 251.98Z" />
	<path class="shp0" d="M30.02 251.98C28.99 251.98 28.17 251.15 28.17 250.13C28.17 249.11 28.99 248.28 30.02 248.28C31.04 248.28 31.86 249.11 31.86 250.13C31.86 251.15 31.04 251.98 30.02 251.98Z" />
	<path class="shp0" d="M-6.93 270.45C-7.95 270.45 -8.78 269.62 -8.78 268.6C-8.78 267.58 -7.95 266.75 -6.93 266.75C-5.91 266.75 -5.08 267.58 -5.08 268.6C-5.08 269.62 -5.91 270.45 -6.93 270.45Z" />
	<path class="shp0" d="M11.54 270.45C10.52 270.45 9.7 269.62 9.7 268.6C9.7 267.58 10.52 266.75 11.54 266.75C12.56 266.75 13.39 267.58 13.39 268.6C13.39 269.62 12.56 270.45 11.54 270.45Z" />
	<path class="shp0" d="M30.02 270.45C28.99 270.45 28.17 269.62 28.17 268.6C28.17 267.58 28.99 266.75 30.02 266.75C31.04 266.75 31.86 267.58 31.86 268.6C31.86 269.62 31.04 270.45 30.02 270.45Z" />
	<path class="shp0" d="M-6.93 288.92C-7.95 288.92 -8.78 288.09 -8.78 287.07C-8.78 286.05 -7.95 285.23 -6.93 285.23C-5.91 285.23 -5.08 286.05 -5.08 287.07C-5.08 288.09 -5.91 288.92 -6.93 288.92Z" />
	<path class="shp0" d="M11.54 288.92C10.52 288.92 9.7 288.09 9.7 287.07C9.7 286.05 10.52 285.23 11.54 285.23C12.56 285.23 13.39 286.05 13.39 287.07C13.39 288.09 12.56 288.92 11.54 288.92Z" />
	<path class="shp0" d="M30.02 288.92C28.99 288.92 28.17 288.09 28.17 287.07C28.17 286.05 28.99 285.23 30.02 285.23C31.04 285.23 31.86 286.05 31.86 287.07C31.86 288.09 31.04 288.92 30.02 288.92Z" />
	<path class="shp0" d="M-6.93 307.39C-7.95 307.39 -8.78 306.57 -8.78 305.54C-8.78 304.52 -7.95 303.7 -6.93 303.7C-5.91 303.7 -5.08 304.52 -5.08 305.54C-5.08 306.57 -5.91 307.39 -6.93 307.39Z" />
	<path class="shp0" d="M11.54 307.39C10.52 307.39 9.7 306.57 9.7 305.54C9.7 304.52 10.52 303.7 11.54 303.7C12.56 303.7 13.39 304.52 13.39 305.54C13.39 306.57 12.56 307.39 11.54 307.39Z" />
	<path class="shp0" d="M30.02 307.39C28.99 307.39 28.17 306.57 28.17 305.54C28.17 304.52 28.99 303.7 30.02 303.7C31.04 303.7 31.86 304.52 31.86 305.54C31.86 306.57 31.04 307.39 30.02 307.39Z" />
	<path class="shp0" d="M-6.93 325.86C-7.95 325.86 -8.78 325.04 -8.78 324.02C-8.78 323 -7.95 322.17 -6.93 322.17C-5.91 322.17 -5.08 323 -5.08 324.02C-5.08 325.04 -5.91 325.86 -6.93 325.86Z" />
	<path class="shp0" d="M11.54 325.86C10.52 325.86 9.7 325.04 9.7 324.02C9.7 323 10.52 322.17 11.54 322.17C12.56 322.17 13.39 323 13.39 324.02C13.39 325.04 12.56 325.86 11.54 325.86Z" />
	<path class="shp0" d="M30.02 325.86C28.99 325.86 28.17 325.04 28.17 324.02C28.17 323 28.99 322.17 30.02 322.17C31.04 322.17 31.86 323 31.86 324.02C31.86 325.04 31.04 325.86 30.02 325.86Z" />
	<path class="shp0" d="M-6.93 344.34C-7.95 344.34 -8.78 343.51 -8.78 342.49C-8.78 341.47 -7.95 340.64 -6.93 340.64C-5.91 340.64 -5.08 341.47 -5.08 342.49C-5.08 343.51 -5.91 344.34 -6.93 344.34Z" />
	<path class="shp0" d="M11.54 344.34C10.52 344.34 9.7 343.51 9.7 342.49C9.7 341.47 10.52 340.64 11.54 340.64C12.56 340.64 13.39 341.47 13.39 342.49C13.39 343.51 12.56 344.34 11.54 344.34Z" />
	<path class="shp0" d="M30.02 344.34C28.99 344.34 28.17 343.51 28.17 342.49C28.17 341.47 28.99 340.64 30.02 340.64C31.04 340.64 31.86 341.47 31.86 342.49C31.86 343.51 31.04 344.34 30.02 344.34Z" />
	<path class="shp0" d="M-6.93 362.81C-7.95 362.81 -8.78 361.98 -8.78 360.96C-8.78 359.94 -7.95 359.11 -6.93 359.11C-5.91 359.11 -5.08 359.94 -5.08 360.96C-5.08 361.98 -5.91 362.81 -6.93 362.81Z" />
	<path class="shp0" d="M11.54 362.81C10.52 362.81 9.7 361.98 9.7 360.96C9.7 359.94 10.52 359.11 11.54 359.11C12.56 359.11 13.39 359.94 13.39 360.96C13.39 361.98 12.56 362.81 11.54 362.81Z" />
	<path class="shp0" d="M30.02 362.81C28.99 362.81 28.17 361.98 28.17 360.96C28.17 359.94 28.99 359.11 30.02 359.11C31.04 359.11 31.86 359.94 31.86 360.96C31.86 361.98 31.04 362.81 30.02 362.81Z" />
</svg>