<?xml version="1.0" standalone="no"?>
<!DOCTYPE svg PUBLIC "-//W3C//DTD SVG 20010904//EN"
 "http://www.w3.org/TR/2001/REC-SVG-20010904/DTD/svg10.dtd">
<svg version="1.0" xmlns="http://www.w3.org/2000/svg"
 width="512.000000pt" height="512.000000pt" viewBox="0 0 512.000000 512.000000"
 preserveAspectRatio="xMidYMid meet">

<g transform="translate(0.000000,512.000000) scale(0.100000,-0.100000)"
fill="#000000" stroke="none">
<path d="M2164 5100 c-12 -4 -31 -21 -43 -36 -20 -26 -21 -37 -21 -263 l0
-236 -1011 -270 c-612 -163 -1024 -278 -1043 -290 -62 -41 -66 -21 143 -799
143 -534 195 -714 211 -732 37 -38 58 -39 175 -7 11 3 -109 -125 -266 -284
-158 -158 -292 -299 -299 -312 -30 -59 -22 -68 381 -469 210 -207 390 -380
402 -384 12 -3 311 -6 664 -7 l642 -1 3 -479 3 -479 24 -26 24 -26 407 0 407
0 24 26 24 26 3 478 3 479 308 3 309 3 26 24 c47 44 44 112 -8 153 -20 16
-109 18 -1406 18 l-1385 0 -310 310 -310 310 310 310 310 310 2027 0 2028 0 0
-620 0 -620 -285 0 c-320 0 -334 -3 -355 -64 -14 -43 -5 -78 27 -108 l25 -23
364 0 364 0 27 28 28 27 0 761 0 761 -33 29 -32 29 -1015 0 -1015 0 2 237 3
236 760 204 c421 112 771 211 784 221 27 20 537 892 546 935 12 51 -11 83 -99
136 -222 133 -834 480 -856 485 -16 4 -221 -46 -580 -142 l-555 -149 -5 119
-5 120 -33 29 -32 29 -383 -1 c-210 0 -392 -4 -403 -9z m654 -267 l-3 -76
-230 -62 c-126 -34 -242 -65 -257 -69 l-28 -6 0 145 0 145 260 0 261 0 -3 -77z
m1679 -144 c202 -117 372 -215 376 -219 5 -4 -90 -176 -209 -383 l-218 -376
-70 -19 c-979 -266 -3828 -1024 -3832 -1019 -6 5 -214 770 -211 774 1 1 139
38 307 83 168 44 325 88 350 96 52 16 80 53 80 104 0 44 -47 90 -92 90 -18 0
-181 -40 -363 -89 -194 -52 -332 -85 -336 -79 -10 16 -54 197 -49 202 5 4
3866 1043 3887 1045 6 0 177 -94 380 -210z m-1677 -1829 l0 -210 -260 0 -260
0 0 140 0 140 28 6 c20 6 477 129 490 133 1 1 2 -93 2 -209z m-720 -100 l0
-110 -412 1 c-227 1 -406 3 -398 6 103 30 780 211 793 212 15 1 17 -10 17
-109z m720 -2160 l0 -410 -260 0 -260 0 0 410 0 410 260 0 260 0 0 -410z"/>
<path d="M1289 3905 c-33 -18 -53 -65 -44 -103 15 -72 107 -102 159 -53 87 81
-10 213 -115 156z"/>
<path d="M3929 1179 c-48 -51 -35 -125 28 -154 53 -26 114 1 133 59 32 97 -91
170 -161 95z"/>
</g>
</svg>
