<?xml version="1.0" standalone="no"?>
<!DOCTYPE svg PUBLIC "-//W3C//DTD SVG 20010904//EN"
 "http://www.w3.org/TR/2001/REC-SVG-20010904/DTD/svg10.dtd">
<svg version="1.0" xmlns="http://www.w3.org/2000/svg"
 width="512.000000pt" height="512.000000pt" viewBox="0 0 512.000000 512.000000"
 preserveAspectRatio="xMidYMid meet">

<g transform="translate(0.000000,512.000000) scale(0.100000,-0.100000)"
fill="#000000" stroke="none">
<path d="M2385 5105 c-401 -74 -717 -367 -822 -761 -23 -87 -26 -118 -26 -259
0 -133 3 -173 21 -240 41 -149 114 -280 281 -505 87 -117 135 -207 151 -283
11 -57 11 -57 -19 -88 l-31 -31 0 -300 0 -300 29 -29 29 -29 562 0 562 0 29
29 29 29 0 300 0 300 -30 30 c-28 29 -29 32 -20 83 15 97 40 140 201 356 156
208 217 338 244 522 19 121 19 181 1 301 -63 414 -363 756 -753 856 -126 32
-320 41 -438 19z m308 -196 c327 -51 582 -293 673 -639 26 -96 24 -291 -4
-393 -27 -99 -85 -210 -163 -312 -192 -253 -255 -366 -267 -485 l-7 -75 -132
-3 -133 -3 0 433 0 432 90 92 c88 89 95 103 91 159 -3 34 -57 75 -97 75 -31 0
-46 -10 -110 -72 l-74 -71 -74 71 c-63 62 -79 72 -109 72 -43 0 -92 -38 -100
-77 -8 -44 15 -82 102 -168 l81 -80 0 -433 0 -433 -132 3 -133 3 -7 75 c-12
119 -58 203 -242 450 -162 217 -209 339 -209 550 -1 89 4 145 17 193 116 441
503 703 939 636z m287 -2269 l0 -160 -420 0 -420 0 0 160 0 160 420 0 420 0 0
-160z"/>
<path d="M1059 4991 c-37 -38 -40 -97 -6 -134 26 -30 261 -166 297 -173 87
-18 151 100 88 162 -12 12 -82 57 -154 98 -150 87 -179 93 -225 47z"/>
<path d="M3835 4945 c-161 -95 -180 -112 -180 -166 0 -34 6 -46 33 -70 19 -17
44 -29 60 -29 33 0 286 140 320 177 51 56 15 150 -63 159 -36 4 -54 -3 -170
-71z"/>
<path d="M838 4161 c-28 -25 -33 -36 -32 -71 1 -31 8 -49 28 -69 26 -26 29
-26 184 -29 181 -4 224 4 247 48 24 46 19 87 -14 121 l-29 29 -176 0 -176 0
-32 -29z"/>
<path d="M3869 4161 c-21 -22 -29 -39 -29 -66 0 -90 34 -105 235 -105 203 0
235 15 235 108 0 33 -6 45 -31 66 -30 26 -32 26 -206 26 l-175 0 -29 -29z"/>
<path d="M217 3489 c-83 -20 -146 -68 -185 -143 -22 -42 -27 -64 -27 -126 0
-70 5 -84 62 -215 33 -77 143 -333 243 -570 279 -660 368 -846 469 -984 62
-86 176 -200 423 -425 120 -109 218 -204 218 -212 0 -10 -12 -14 -40 -14 -21
0 -51 -5 -65 -12 -53 -24 -55 -40 -55 -388 0 -348 2 -364 55 -388 20 -9 321
-12 1246 -12 1326 0 1261 -3 1287 55 19 41 17 657 -2 694 -18 33 -54 51 -106
51 -28 0 -40 4 -40 14 0 8 98 103 218 212 119 109 250 231 291 273 182 185
257 324 546 1006 70 165 179 422 243 570 114 264 116 272 116 345 0 62 -4 84
-26 126 -88 168 -305 198 -440 62 -25 -25 -128 -182 -247 -378 -112 -184 -205
-336 -206 -338 -1 -1 -32 6 -68 15 -56 15 -74 16 -123 5 -32 -6 -75 -23 -95
-37 -22 -14 -143 -155 -282 -327 -134 -167 -276 -334 -316 -371 -40 -37 -161
-134 -269 -215 -221 -165 -344 -281 -419 -394 -28 -42 -54 -82 -57 -90 -5 -11
-7 -11 -12 0 -3 8 -29 48 -57 90 -76 114 -200 231 -419 395 -108 80 -229 176
-269 214 -39 37 -182 204 -316 371 -139 172 -260 313 -282 327 -20 14 -63 31
-95 37 -49 11 -67 10 -123 -5 -36 -9 -67 -16 -68 -15 -1 2 -94 154 -206 338
-119 196 -222 353 -247 378 -69 70 -170 102 -255 81z m86 -204 c40 -20 24 5
280 -416 177 -290 217 -362 217 -392 0 -97 69 -279 221 -577 119 -234 144
-273 191 -284 48 -12 94 7 114 47 22 41 14 70 -46 174 -107 184 -280 568 -280
621 0 52 68 79 108 45 11 -10 122 -146 248 -303 125 -157 260 -316 298 -354
39 -38 167 -140 284 -228 117 -88 244 -191 283 -229 140 -138 224 -317 236
-502 l6 -87 -422 0 -421 0 0 45 c0 24 -5 55 -11 69 -6 13 -97 102 -203 197
-262 237 -409 382 -465 459 -92 125 -174 297 -431 906 -84 197 -187 442 -231
543 -43 101 -79 193 -79 205 0 25 16 49 45 64 25 14 22 15 58 -3z m4577 0 c38
-20 48 -57 27 -109 -32 -83 -456 -1076 -521 -1221 -86 -191 -146 -303 -206
-385 -57 -76 -212 -230 -471 -464 -103 -92 -192 -179 -198 -192 -6 -14 -11
-45 -11 -69 l0 -45 -420 0 -420 0 0 55 c0 76 26 196 59 275 67 161 169 268
468 491 116 88 242 189 280 227 38 37 172 195 297 352 126 157 237 293 248
303 40 34 108 7 108 -45 0 -52 -173 -438 -279 -620 -28 -48 -53 -99 -57 -113
-13 -54 38 -115 96 -115 64 0 100 49 238 326 136 272 202 448 202 541 0 30 40
102 217 392 255 418 240 396 278 415 37 19 30 19 65 1z m-2420 -2885 l0 -200
-500 0 -500 0 0 200 0 200 500 0 500 0 0 -200z m1200 0 l0 -200 -500 0 -500 0
0 200 0 200 500 0 500 0 0 -200z"/>
<path d="M1207 3426 c-160 -92 -177 -107 -177 -161 0 -51 20 -80 66 -95 33
-11 41 -9 97 19 34 18 105 58 157 89 78 47 97 63 108 93 12 32 12 41 -3 72
-17 37 -50 57 -93 57 -15 0 -82 -32 -155 -74z"/>
<path d="M3693 3482 c-47 -37 -52 -111 -10 -149 26 -23 262 -158 293 -167 27
-8 66 7 93 35 27 30 28 88 1 122 -11 14 -80 59 -154 101 -142 81 -181 91 -223
58z"/>
</g>
</svg>
